<svg width="46" height="38" viewBox="0 0 46 38" fill="none" xmlns="http://www.w3.org/2000/svg">
<path d="M8.95175 26.7146C6.21091 26.0886 4.3289 24.4186 3.30569 21.7047C2.49953 19.5664 2.54744 17.5758 3.44942 15.7329C4.3514 13.8899 5.81668 12.5861 7.84526 11.8213C9.87384 11.0564 11.8163 11.0599 13.6728 11.8315C15.5292 12.6032 16.8708 14.0855 17.6977 16.2786C18.2351 17.7041 18.4535 19.0307 18.3528 20.2584L17.1485 34.3792L9.42814 34.3312L8.95175 26.7146ZM31.321 18.281C28.5801 17.6549 26.6981 15.9849 25.6749 13.271C24.8688 11.1328 24.9167 9.14217 25.8186 7.29923C26.7206 5.45628 28.1859 4.15241 30.2145 3.38759C32.2431 2.62277 34.1856 2.62619 36.042 3.39784C37.8984 4.1695 39.24 5.65186 40.0669 7.84492C40.6043 9.27041 40.8227 10.597 40.722 11.8248L39.5177 25.9456L31.7974 25.8975L31.321 18.281Z" fill="#9C2E29"/>
</svg>
