<svg width="43" height="34" viewBox="0 0 43 34" fill="none" xmlns="http://www.w3.org/2000/svg">
<path d="M43 2.75C43 4.06145 41.9317 5.125 40.6111 5.125H33.4444V12.25C33.4444 13.5614 32.3762 14.625 31.0556 14.625H23.8889V21.75C23.8889 23.0614 22.8206 24.125 21.5 24.125H14.3333V31.25C14.3333 32.5614 13.2651 33.625 11.9444 33.625H2.38889C1.06828 33.625 0 32.5614 0 31.25C0 29.9386 1.06828 28.875 2.38889 28.875H9.55556V21.75C9.55556 20.4386 10.6238 19.375 11.9444 19.375H19.1111V12.25C19.1111 10.9386 20.1794 9.875 21.5 9.875H28.6667V2.75C28.6667 1.43855 29.7349 0.375 31.0556 0.375H40.6111C41.9325 0.375 43 1.43855 43 2.75Z" fill="#9C2E29"/>
</svg>
