<svg width="41" height="41" viewBox="0 0 41 41" fill="none" xmlns="http://www.w3.org/2000/svg">
<path d="M3.854 0.916664C3.07493 0.916664 2.32777 1.22615 1.77688 1.77704C1.22599 2.32793 0.916504 3.07509 0.916504 3.85416V29.3125C0.916504 30.0916 1.22599 30.8387 1.77688 31.3896C2.32777 31.9405 3.07493 32.25 3.854 32.25H14.6248V25.7562C14.6248 24.262 15.2437 22.8382 16.3364 21.8199L24.4165 14.2745V13.6458C24.4165 12.8668 24.107 12.1196 23.5561 11.5687C23.0052 11.0178 22.2581 10.7083 21.479 10.7083H18.5415V3.85416C18.5415 3.07509 18.232 2.32793 17.6811 1.77704C17.1302 1.22615 16.3831 0.916664 15.604 0.916664H3.854ZM8.74984 8.26041C8.74984 8.64995 8.59509 9.02353 8.31965 9.29898C8.04421 9.57442 7.67062 9.72916 7.28109 9.72916C6.89155 9.72916 6.51797 9.57442 6.24252 9.29898C5.96708 9.02353 5.81234 8.64995 5.81234 8.26041C5.81234 7.87088 5.96708 7.49729 6.24252 7.22185C6.51797 6.94641 6.89155 6.79166 7.28109 6.79166C7.67062 6.79166 8.04421 6.94641 8.31965 7.22185C8.59509 7.49729 8.74984 7.87088 8.74984 8.26041ZM7.28109 15.6042C6.89155 15.6042 6.51797 15.4494 6.24252 15.174C5.96708 14.8985 5.81234 14.525 5.81234 14.1354C5.81234 13.7459 5.96708 13.3723 6.24252 13.0969C6.51797 12.8214 6.89155 12.6667 7.28109 12.6667C7.67062 12.6667 8.04421 12.8214 8.31965 13.0969C8.59509 13.3723 8.74984 13.7459 8.74984 14.1354C8.74984 14.525 8.59509 14.8985 8.31965 15.174C8.04421 15.4494 7.67062 15.6042 7.28109 15.6042ZM8.74984 20.0104C8.74984 20.4 8.59509 20.7735 8.31965 21.049C8.04421 21.3244 7.67062 21.4792 7.28109 21.4792C6.89155 21.4792 6.51797 21.3244 6.24252 21.049C5.96708 20.7735 5.81234 20.4 5.81234 20.0104C5.81234 19.6209 5.96708 19.2473 6.24252 18.9719C6.51797 18.6964 6.89155 18.5417 7.28109 18.5417C7.67062 18.5417 8.04421 18.6964 8.31965 18.9719C8.59509 19.2473 8.74984 19.6209 8.74984 20.0104ZM12.1769 9.72916C11.7874 9.72916 11.4138 9.57442 11.1384 9.29898C10.8629 9.02353 10.7082 8.64995 10.7082 8.26041C10.7082 7.87088 10.8629 7.49729 11.1384 7.22185C11.4138 6.94641 11.7874 6.79166 12.1769 6.79166C12.5665 6.79166 12.94 6.94641 13.2155 7.22185C13.4909 7.49729 13.6457 7.87088 13.6457 8.26041C13.6457 8.64995 13.4909 9.02353 13.2155 9.29898C12.94 9.57442 12.5665 9.72916 12.1769 9.72916ZM13.6457 14.1354C13.6457 14.525 13.4909 14.8985 13.2155 15.174C12.94 15.4494 12.5665 15.6042 12.1769 15.6042C11.7874 15.6042 11.4138 15.4494 11.1384 15.174C10.8629 14.8985 10.7082 14.525 10.7082 14.1354C10.7082 13.7459 10.8629 13.3723 11.1384 13.0969C11.4138 12.8214 11.7874 12.6667 12.1769 12.6667C12.5665 12.6667 12.94 12.8214 13.2155 13.0969C13.4909 13.3723 13.6457 13.7459 13.6457 14.1354ZM12.1769 21.4792C11.984 21.4792 11.7931 21.4412 11.6149 21.3674C11.4367 21.2936 11.2747 21.1854 11.1384 21.049C11.002 20.9126 10.8938 20.7507 10.82 20.5725C10.7462 20.3943 10.7082 20.2033 10.7082 20.0104C10.7082 19.8175 10.7462 19.6265 10.82 19.4483C10.8938 19.2702 11.002 19.1082 11.1384 18.9719C11.2747 18.8355 11.4367 18.7273 11.6149 18.6535C11.7931 18.5797 11.984 18.5417 12.1769 18.5417C12.5665 18.5417 12.94 18.6964 13.2155 18.9719C13.4909 19.2473 13.6457 19.6209 13.6457 20.0104C13.6457 20.4 13.4909 20.7735 13.2155 21.049C12.94 21.3244 12.5665 21.4792 12.1769 21.4792ZM30.6714 15.4847C30.0368 14.8925 29.2012 14.5631 28.3332 14.5631C27.4652 14.5631 26.6295 14.8925 25.9949 15.4847L17.672 23.2515C17.3283 23.5722 17.0542 23.9603 16.8669 24.3916C16.6796 24.8228 16.583 25.288 16.5832 25.7581V37.1458C16.5832 37.9249 16.8927 38.6721 17.4435 39.223C17.9944 39.7738 18.7416 40.0833 19.5207 40.0833H23.4373C24.2164 40.0833 24.9636 39.7738 25.5145 39.223C26.0654 38.6721 26.3748 37.9249 26.3748 37.1458V32.25H30.2915V37.1458C30.2915 37.9249 30.601 38.6721 31.1519 39.223C31.7028 39.7738 32.4499 40.0833 33.229 40.0833H37.1457C37.9247 40.0833 38.6719 39.7738 39.2228 39.223C39.7737 38.6721 40.0832 37.9249 40.0832 37.1458V25.7581C40.0833 25.288 39.9868 24.8228 39.7994 24.3916C39.6121 23.9603 39.3381 23.5722 38.9943 23.2515L30.6714 15.4847ZM27.9983 17.631C28.089 17.546 28.2088 17.4986 28.3332 17.4986C28.4576 17.4986 28.5773 17.546 28.668 17.631L36.991 25.3997C37.0399 25.4457 37.079 25.5012 37.1056 25.5628C37.1322 25.6245 37.1458 25.691 37.1457 25.7581V37.1458H33.229V32.25C33.229 31.4709 32.9195 30.7238 32.3686 30.1729C31.8177 29.622 31.0706 29.3125 30.2915 29.3125H26.3748C25.5958 29.3125 24.8486 29.622 24.2977 30.1729C23.7468 30.7238 23.4373 31.4709 23.4373 32.25V37.1458H19.5207V25.7581C19.5208 25.6908 19.5347 25.6243 19.5617 25.5626C19.5886 25.5009 19.628 25.4455 19.6773 25.3997L28.0003 17.631H27.9983ZM15.1144 0.916664H4.34359H15.1144Z" fill="#9C2E29"/>
</svg>
