<svg width="17" height="17" viewBox="0 0 17 17" fill="none" xmlns="http://www.w3.org/2000/svg">
<path d="M16.5859 7.09375H9.90625V0.414062C9.90625 0.220703 9.74805 0.0625 9.55469 0.0625H7.44531C7.25195 0.0625 7.09375 0.220703 7.09375 0.414062V7.09375H0.414062C0.220703 7.09375 0.0625 7.25195 0.0625 7.44531V9.55469C0.0625 9.74805 0.220703 9.90625 0.414062 9.90625H7.09375V16.5859C7.09375 16.7793 7.25195 16.9375 7.44531 16.9375H9.55469C9.74805 16.9375 9.90625 16.7793 9.90625 16.5859V9.90625H16.5859C16.7793 9.90625 16.9375 9.74805 16.9375 9.55469V7.44531C16.9375 7.25195 16.7793 7.09375 16.5859 7.09375Z" fill="black"/>
</svg>
